<svg width="24" height="25" viewBox="0 0 24 25" fill="none" xmlns="http://www.w3.org/2000/svg">
<path d="M15.1474 13.6678V4.35383L10.8079 3.77603L10.6593 8.09936L9.07038 7.017L7.48143 7.91422L7.80899 3.39355L5.37572 3.08227V12.559L15.1474 13.6678Z" fill="#2F50C1"/>
<path d="M19.3161 24.2696V14.9556L14.9766 14.3778L14.828 18.7012L13.2391 17.6188L11.6501 18.516L11.9777 13.9954L9.72753 13.7756V23.2524L19.3161 24.2696Z" fill="#2F50C1"/>
<path d="M5.81111 13.3036L5.66666 17.5212L4.07771 16.4388L2.48876 17.336L2.81631 12.8153L0.566152 12.5061V21.9828L8.85472 22.9248V13.6414L5.81111 13.3036Z" fill="#2F50C1"/>
<path d="M19.8105 11.9873L16.6123 13.8957L19.7882 14.3005L22.8297 12.384L19.8105 11.9873Z" fill="#2F50C1"/>
<path d="M20.191 15.0431V24.0478L23.6191 22.0032L23.552 12.9252L20.191 15.0431Z" fill="#2F50C1"/>
<path d="M4.68806 11.32V10.437L1.29451 11.9283L3.24153 12.1765L4.68806 11.32Z" fill="#2F50C1"/>
<path d="M16.0223 4.44132V13.446L19.0761 11.6231L19.4484 11.3078L19.3833 2.3234L16.0223 4.44132Z" fill="#2F50C1"/>
<path d="M14.6164 1.25121L11.2799 3.14534L15.6195 3.69872L18.661 1.78222L14.6164 1.25121Z" fill="#2F50C1"/>
<path d="M8.23624 2.75471L11.4711 0.836174L10.405 0.695793L6.28921 2.50447L8.23624 2.75471Z" fill="#2F50C1"/>
</svg>
